<?xml version="1.0" encoding="UTF-8" standalone="no"?>
<!-- Created with Inkscape (http://www.inkscape.org/) -->

<svg
   version="1.1"
   id="svg870"
   width="2500.9397"
   height="540.75183"
   viewBox="0 0 2500.9397 540.75183"
   xmlns:xlink="http://www.w3.org/1999/xlink"
   xmlns="http://www.w3.org/2000/svg"
   xmlns:svg="http://www.w3.org/2000/svg">
  <defs
     id="defs874" />
  <g
     id="g876"
     transform="translate(-82.071173,-227.43148)">
    <path
       style="fill:#ffa2c8;stroke:none"
       d="m 276,354 c -8.951,26.254 -22.792,50.922 -32.378,77 -12.923,35.154 -22.572,72.136 -33.332,108 -18.433,61.44 -25.859,123.082 13.149,179 8.186,11.735 17.926,22.844 29.561,31.255 21.032,15.203 50.819,25.078 76,14.547 14.234,-5.952 28.017,-18.067 38.561,-29.088 35.798,-37.418 56.819,-92.152 71.795,-140.729 4.305,-13.966 8.208,-28.116 12.811,-41.985 2.625,-7.912 6.884,-18.676 5.833,-27 l 25,-0.17 26,-5.83 c -0.314,10.858 -5.098,21.386 -7.103,32 -1.83,9.681 -4.333,19.252 -5.688,29 -4.876,35.095 8.051,92.914 51.791,93.985 10.021,0.246 19.345,-1.14 29,-3.74 15.327,-4.129 30.848,-13.208 42.961,-23.336 5.067,-4.238 13.539,-16.227 19.996,-17.127 3.351,-0.466 5.059,3.859 6.287,6.218 3.751,7.21 8.585,13.542 15.76,17.662 20.378,11.703 48.197,1.665 65.996,-10.701 26.304,-18.276 39.432,-51.247 55.272,-77.961 4.623,-7.795 15.025,-27.217 25.724,-26.743 4.675,0.207 7.481,5.011 9.313,8.743 4.66,9.492 9.032,19.236 13.091,29 1.352,3.253 5.274,8.814 4.041,12.424 -1.85,5.418 -9.327,11.164 -13.03,15.576 -15.005,17.876 -53.916,57.193 -19.407,77.12 19.956,11.523 41.742,-4.872 53.496,-20.12 3.659,-4.747 8.722,-16.873 14.543,-18.836 3.19,-1.076 6.612,2.136 8.957,3.861 5.869,4.317 12.097,8.199 19,10.675 17.305,6.206 38.984,5.948 57,2.975 17.53,-2.892 32.26,-12.897 45,-24.764 7.02,-6.544 15.1,-19.383 25,-20.911 0.88,8.565 7.15,15.15 13,20.999 18.16,18.153 48.34,23.23 73,19.792 7.78,-1.084 20.77,-9.453 27.82,-8.204 6.01,1.068 14.65,10.653 20.18,13.964 13.6,8.143 30.23,14.972 46,17.241 57.84,8.319 110,-24.292 144,-68.368 14.04,-18.208 30.24,-40.07 23.21,-64.424 -7.54,-26.144 -36.53,-30.419 -56.21,-15.561 -11.67,8.809 -16.85,20.935 -26.18,31.561 -17.82,20.271 -37.16,35.305 -62.82,43.833 -10.82,3.596 -29.97,11.297 -39.62,1.262 -3.11,-3.233 1.41,-6.831 3.62,-9.095 7.19,-7.34 13.82,-14.937 20.2,-23 17.04,-21.56 28.39,-44.408 34.54,-71 3.65,-15.742 1.91,-33.481 -13.74,-41.803 -49.47,-26.311 -96.59,39.572 -102.82,81.842 -1.44,9.732 -2.77,19.052 -2.09,28.961 0.46,6.738 2.51,15.845 -1.69,21.907 -3.54,5.108 -10.8,7.437 -16.4,9.398 -14.97,5.245 -33.48,9.456 -49,4.011 -11.83,-4.151 -20.58,-17.847 -18.79,-30.316 2.89,-20.149 17.08,-37.753 19.73,-58.424 1.37,-10.714 2.15,-27.122 -9.95,-32.487 -21.79,-9.654 -37.61,18.929 -43.55,34.915 -5.71,15.365 -7.88,32.488 -15.791,46.996 -13.174,24.147 -44.413,43.671 -72.649,36.392 -4.376,-1.128 -16.351,-4.869 -16.531,-10.485 -0.199,-6.208 9.29,-15.892 12.606,-20.907 10.304,-15.581 20.955,-30.995 28.841,-48 4.029,-8.688 7.437,-16.958 -0.129,-24.891 -7.11,-7.456 -14.422,-1.961 -20.787,3.326 -13.38,11.114 -25.712,23.277 -38,35.565 -3.173,3.173 -9.842,12.729 -14.907,12.079 C 864.491,550.231 856.917,532.215 853.586,527 841.876,508.665 831.067,492.065 808,488.325 752.419,479.311 738.894,555.586 717.189,591 c -7.042,11.49 -16.036,22.516 -27.189,30.226 -4.534,3.135 -11.446,6.711 -17.07,4.221 -8.709,-3.856 -6.105,-20.017 -5.06,-27.447 3.623,-25.766 18.897,-52.068 28.702,-75.999 4.258,-10.395 10.949,-29.829 -5.572,-31.817 -9.128,-1.098 -19.04,2.271 -27,6.41 -39.55,20.566 -39.408,62.048 -57.086,97.406 -8.319,16.637 -29.793,38.485 -50.914,34.656 -20.358,-3.691 -16.006,-37.99 -16,-52.656 0.008,-19.912 5.919,-40.808 10.845,-60 1.996,-7.776 2.345,-17.249 7.005,-23.985 4.35,-6.288 12.197,-9.385 18.15,-13.914 7.159,-5.446 12.582,-12.497 17.293,-20.101 7.362,-11.882 13.13,-31.308 -3.293,-38.401 -26.877,-11.608 -46.161,8.713 -55.775,31.401 -3.674,8.67 -6.625,23.083 -16.226,26.991 -20.221,8.23 -43.084,-0.258 -60.999,-9.238 -10.5,-5.263 -21.616,-13.405 -34.004,-11.536 -14.839,2.238 -23.688,21.489 -28.491,33.783 -7.672,19.641 -11.403,40.673 -16.79,61 -5.173,19.514 -12.12,38.801 -18.385,58 -8.01,24.548 -17.261,50.683 -33.798,71 -7.942,9.758 -20.967,18.657 -32.528,8.786 C 269.492,669.712 274.812,638.264 278.91,612 c 10.19,-65.29 34.742,-128.419 52.171,-192 5.13,-18.716 11.425,-37.156 16.08,-56 1.547,-6.26 2.809,-19.17 8.139,-23.4 8.443,-6.701 29.247,-4.927 39.7,-7.19 24.682,-5.345 50.17,-7.363 75,-12.035 18.546,-3.489 35.939,-6.124 51,-18.814 13.241,-11.157 29.514,-36.211 21.941,-54.56 C 532.272,222.147 490.942,228 469,228 c -7.733,0 -16.375,-1.075 -24,0.263 -78.503,13.78 -158.817,17.077 -238,26.553 -30.12,3.604 -68.502,1.02 -96,16.224 -6.962,3.85 -13.3943,8.716 -18.3696,14.96 -29.4873,37.007 7.8886,85.768 49.3696,86.985 30.326,0.889 58.508,-4.425 88,-10.803 14.358,-3.105 31.263,-10.908 46,-8.182 m 1954,66 c 0.11,-9.793 4.44,-19.032 3.68,-29 -0.47,-6.045 -1.19,-12.406 -3.62,-18 -7.22,-16.71 -21.18,-18.192 -36.06,-10.204 -16.6,8.91 -26.47,26.671 -35.94,42.204 -3.72,6.111 -6.33,15.469 -13.06,18.976 -7.29,3.793 -17.11,2.718 -25,3.063 -9.37,0.411 -18.67,2.672 -28,2.947 -6.88,0.203 -19.68,0.232 -24.18,6.228 -4.78,6.364 0.13,19.712 6.28,23.777 9.44,6.229 29.8,5.855 40.9,6.905 3.87,0.365 14.02,-0.518 15.54,4.368 2.52,8.162 -5.94,23.527 -7.72,31.736 -8.32,38.257 -28.26,63.912 -63.82,81.424 -12.47,6.142 -25.96,11.929 -40,8.576 5.55,-10.94 13.02,-20.095 16.91,-32.001 9.21,-28.217 2.73,-72.04 -31.91,-78.531 -7.75,-1.453 -17.48,-1.1 -25,1.206 -4.43,1.359 -12.32,6.111 -16.83,5.333 -5.46,-0.941 -11.84,-10.058 -17.17,-12.887 -18.99,-10.077 -42.88,-8.242 -59.96,5.115 -32.26,25.224 -38.63,71.797 -69.04,99.595 -10.52,9.616 -28.67,23.644 -44.17,16.241 -22.25,-10.63 -12.08,-51.49 -9.55,-70.071 5.57,-40.846 22.73,-80.838 32.06,-121 5.73,-24.676 11.32,-49.522 1.21,-74 -12.52,-30.296 -48.92,-23.219 -72.55,-12.219 -10.78,5.021 -26.37,14.542 -36.95,4.16 -11.85,-11.644 -10.91,-33.476 -18.31,-47.941 -7.34,-14.363 -18.41,-28.411 -33.74,-34.649 -21.39,-8.704 -47.49,3.019 -62.99,17.738 -11.87,11.281 -19.05,25.794 -26.87,39.911 -13.8,24.902 -26.67,50.248 -38.82,76 -27.76,58.845 -52.24,118.342 -75.75,179 -9.25,23.888 -21.49,48.182 -27.9,73 -7.24,27.996 -16.13,55.696 -14.21,85 1.01,15.532 13.75,32.362 29.54,34.699 5.97,0.884 12.03,1.038 18,0.471 8.15,-0.776 15.33,-1.984 23,-5.093 28.88,-11.7 33.24,-46.534 41.2,-73.077 19.86,-66.179 36.21,-134.568 61.41,-199 8.5,-21.715 16.07,-44.093 28.46,-64 3.49,-5.612 10.92,-17.976 18.93,-16.624 11.94,2.015 11,20.972 11,29.624 -0.01,21.458 -5.92,48.172 0.62,69 5.1,16.244 24.76,17.279 37.38,10.12 5.47,-3.104 10.24,-7.311 14.71,-11.696 7.86,-7.706 12.87,-16.719 19.33,-25.424 4.36,-5.885 23.52,-25.365 28.72,-9.046 4.28,13.413 -4.13,35.585 -6.59,49.046 -7.6,41.55 -16.58,81.856 -19.26,124 -1.58,24.796 9.3,59.972 37.09,65.628 34.73,7.068 72.82,-29.424 95,-51.628 10.08,-10.096 20.28,-32.057 37,-28.656 11.19,2.277 13.62,14.809 17.58,23.656 7.51,16.797 18.52,38.319 38.42,41.802 23.27,4.073 43.24,-12.411 65,-17.343 9.76,-2.211 21.03,-0.062 31,-0.498 15.04,-0.659 32.06,-4.491 46,-10.189 10.77,-4.403 21.18,-9.147 31,-15.47 4.63,-2.98 10.38,-9.124 15.94,-10.06 4.57,-0.77 7.1,9.522 8.41,12.758 4.87,12.021 11.53,21.424 24.65,24.91 18.53,4.923 42.33,-2.751 60,-8.415 7.22,-2.314 19.39,-8.958 26.96,-7.428 7.66,1.548 17.41,16.124 24.04,21.01 15.11,11.129 33.32,17.419 52,18.83 24.67,1.864 50.64,-9.601 70,-24.034 7.44,-5.545 14.3,-11.532 21.29,-17.618 2.5,-2.185 6.08,-6.658 9.67,-6.794 4.6,-0.174 8.49,9.364 10.79,12.539 8.02,11.105 18.72,21.836 30.25,29.301 13.47,8.72 28.49,9.851 44,8.788 33.41,-2.287 78.56,-13.32 91.03,-49.089 6.99,-20.03 -4.87,-50.433 -30.03,-47.406 -6.32,0.76 -11.6,3.142 -17,6.471 -18.7,11.536 -66.49,39.223 -74.88,-0.065 -4.81,-22.543 19.35,-35.493 31.46,-51 27.23,-34.883 50.6,-76.759 66.72,-118 6.73,-17.216 19.93,-52.126 0.68,-66.362 -34.76,-25.703 -76.53,22.507 -95.4,46.377 -21.74,27.486 -38.05,59.173 -50.05,91.985 -7.72,21.1 -9.38,44.194 -17.46,65 -12.92,33.296 -44,55.85 -77.07,67.062 -10.37,3.514 -25.12,7.696 -36,4.285 -4.05,-1.27 -12.58,-7.078 -9.34,-12.134 4.18,-6.501 17.93,-10.738 24.34,-15.249 12.16,-8.556 21.46,-20.221 30.37,-31.979 10.39,-13.709 23.99,-32.719 21.42,-50.985 -5.76,-40.992 -66.37,-46.944 -94.79,-28.045 -20.29,13.498 -31.31,44.631 -32.91,68.045 -0.69,10.084 5.88,30.032 -1.37,37.787 -3.54,3.795 -9.16,6.015 -13.72,8.329 -13.14,6.67 -38.95,21.333 -52.9,8.656 -10.85,-9.871 -6.25,-27.35 -5.19,-39.772 0.53,-6.216 0.32,-13.439 3.46,-19 5.3,-9.403 14.02,-17.223 20.34,-26 9.6,-13.333 18.68,-27.291 26.04,-42 3.67,-7.337 6.47,-19.252 13.42,-24.107 7.02,-4.897 17.92,-1.894 25.83,-1.893 13.05,10e-4 25.94,-1 39,-1 8.5,0 18.95,0.957 27,-2.214 12.64,-4.978 27.41,-27.709 9,-35.303 C 2288.22,418.675 2255.31,420 2230,420 M 686,355.599 c -34.181,8.314 -12.451,50.518 -2.691,69.401 3.106,6.01 10.225,23.755 18.695,21.976 19.249,-4.042 41.784,-24.981 51.903,-40.976 5.583,-8.825 8.466,-21.287 0.561,-29.66 -5.995,-6.349 -17.297,-7.329 -25.429,-6.001 -3.15,0.515 -8.212,3.497 -11.279,2.153 -3.136,-1.374 -5.443,-6.074 -7.8,-8.477 -6.011,-6.127 -15.218,-10.543 -23.96,-8.416 m 360,0.996 c -39.56,1.559 -15.63,51.174 -6.26,69.405 3.13,6.088 9.09,21.817 17.28,21.706 6.64,-0.09 14.65,-5.593 19.98,-9.167 15.47,-10.375 47.13,-34.057 36.59,-56.538 -5.13,-10.934 -18.04,-11.615 -28.59,-10.291 -3.26,0.41 -8.29,3.167 -11.45,1.713 -2.98,-1.374 -4.64,-5.928 -6.85,-8.249 -5.27,-5.524 -13.04,-8.881 -20.7,-8.579 M 1212,503 c -1.36,17.221 -11.42,34.065 -21.03,48 -3.7,5.373 -7.18,12.568 -13.97,14 0,-21.463 7.08,-60.552 35,-62 m 708,12.289 c 8.21,-1.056 17.65,1.568 23.91,7.05 2.86,2.505 4.71,6.798 7.98,8.729 2.72,1.606 7.13,-0.858 10.11,-1.025 9.75,-0.546 21.47,-1.061 28.44,7.142 7.31,8.604 4.76,20.763 -0.08,29.815 -9.19,17.19 -34.89,41.65 -55.36,44.003 -9.81,1.128 -15.41,-14.167 -19.4,-21.003 -11.23,-19.228 -34.11,-69.753 4.4,-74.711 M 2262,570 c 0.01,-16.328 5.99,-30.144 18.58,-40.841 3.31,-2.813 12.25,-9.646 16.82,-6.127 3.94,3.043 -0.01,12.473 -1.53,15.968 -5.12,11.76 -20.58,29.233 -33.87,31 z"
       id="path1096" />
  </g>
</svg>
